<svg width="120" height="90" viewBox="0 0 120 90" fill="none" xmlns="http://www.w3.org/2000/svg">
<g clip-path="url(#clip0_41_54)" filter="url(#filter0_i_41_54)">
<path d="M0 0H120V90H0V0Z" fill="#012169"/>
<path d="M14.0625 0L59.8125 33.9375L105.375 0H120V11.625L75 45.1875L120 78.5625V90H105L60 56.4375L15.1875 90H0V78.75L44.8125 45.375L0 12V0H14.0625Z" fill="white"/>
<path d="M79.5 52.6875L120 82.5V90L69.1875 52.6875H79.5ZM45 56.4375L46.125 63L10.125 90H0L45 56.4375ZM120 0V0.5625L73.3125 35.8125L73.6875 27.5625L110.625 0H120ZM0 0L44.8125 33H33.5625L0 7.875V0Z" fill="#C8102E"/>
<path d="M45.1875 0V90H75.1875V0H45.1875ZM0 30V60H120V30H0Z" fill="white"/>
<path d="M0 36.1875V54.1875H120V36.1875H0ZM51.1875 0V90H69.1875V0H51.1875Z" fill="#C8102E"/>
</g>
<defs>
<filter id="filter0_i_41_54" x="0" y="0" width="120" height="94" filterUnits="userSpaceOnUse" color-interpolation-filters="sRGB">
<feFlood flood-opacity="0" result="BackgroundImageFix"/>
<feBlend mode="normal" in="SourceGraphic" in2="BackgroundImageFix" result="shape"/>
<feColorMatrix in="SourceAlpha" type="matrix" values="0 0 0 0 0 0 0 0 0 0 0 0 0 0 0 0 0 0 127 0" result="hardAlpha"/>
<feOffset dy="4"/>
<feGaussianBlur stdDeviation="2"/>
<feComposite in2="hardAlpha" operator="arithmetic" k2="-1" k3="1"/>
<feColorMatrix type="matrix" values="0 0 0 0 0 0 0 0 0 0 0 0 0 0 0 0 0 0 0.1 0"/>
<feBlend mode="normal" in2="shape" result="effect1_innerShadow_41_54"/>
</filter>
<clipPath id="clip0_41_54">
<rect width="120" height="90" fill="white"/>
</clipPath>
</defs>
</svg>
