<svg width="488" height="108" viewBox="0 0 488 108" fill="none" xmlns="http://www.w3.org/2000/svg">
<g filter="url(#filter0_d_5_18)">
<rect x="4.5" y="3.5" width="479" height="99" rx="39.5" fill="white" stroke="#D6D6D6"/>
<circle cx="54" cy="53" r="45" fill="#FF0000"/>
<rect x="34" y="47" width="40" height="12" fill="white"/>
<rect x="48" y="73" width="40" height="12" transform="rotate(-90 48 73)" fill="white"/>
<path d="M108.689 41.92V40.8H119.729C121.862 40.8 123.555 41.0933 124.809 41.68C126.062 42.2667 126.955 43.04 127.489 44C128.049 44.96 128.329 46.0267 128.329 47.2V48.28C128.329 49.6667 127.889 50.8667 127.009 51.88C126.155 52.8667 124.902 53.5733 123.249 54C125.275 54.3467 126.822 55.0667 127.889 56.16C128.982 57.2533 129.529 58.6267 129.529 60.28V61.4C129.529 62.6 129.249 63.7067 128.689 64.72C128.129 65.7067 127.195 66.5067 125.889 67.12C124.609 67.7067 122.889 68 120.729 68H108.689V66.88L110.889 66.6C111.315 66.5467 111.569 66.44 111.649 66.28C111.729 66.0933 111.769 65.5467 111.769 64.64V44.16C111.769 43.2533 111.729 42.72 111.649 42.56C111.569 42.3733 111.315 42.2533 110.889 42.2L108.689 41.92ZM119.729 42.2H116.569V53.4H119.729C120.875 53.4 121.742 53.0133 122.329 52.24C122.915 51.44 123.209 50.1867 123.209 48.48V47.2C123.209 45.4667 122.915 44.2 122.329 43.4C121.742 42.6 120.875 42.2 119.729 42.2ZM120.729 54.8H116.569V66.6H120.729C121.929 66.6 122.835 66.2 123.449 65.4C124.089 64.5733 124.409 63.24 124.409 61.4V60.08C124.409 56.56 123.182 54.8 120.729 54.8ZM152.937 67C152.511 67.4 151.991 67.7333 151.377 68C150.791 68.2667 150.071 68.4 149.217 68.4C148.124 68.4 147.204 68.16 146.457 67.68C145.737 67.2 145.257 66.52 145.017 65.64C144.137 66.6 143.164 67.3067 142.097 67.76C141.057 68.1867 139.991 68.4 138.897 68.4C137.057 68.4 135.684 67.8933 134.777 66.88C133.871 65.84 133.417 64.5467 133.417 63C133.417 61.4267 133.991 60.16 135.137 59.2C136.284 58.2133 138.311 57.72 141.217 57.72H144.857V54.48C144.857 52.2667 144.564 50.76 143.977 49.96C143.417 49.1333 142.631 48.72 141.617 48.72C140.951 48.72 140.337 48.8933 139.777 49.24C139.217 49.56 138.817 50.1733 138.577 51.08C138.364 51.96 138.404 53.24 138.697 54.92L134.297 54.28C134.084 53.0533 134.217 51.92 134.697 50.88C135.204 49.8133 136.044 48.96 137.217 48.32C138.391 47.6533 139.884 47.32 141.697 47.32C143.751 47.32 145.337 47.6533 146.457 48.32C147.577 48.9867 148.351 49.8667 148.777 50.96C149.231 52.0533 149.457 53.2267 149.457 54.48V63.72C149.457 65.08 149.577 65.9333 149.817 66.28C150.057 66.6267 150.324 66.8 150.617 66.8C151.097 66.8 151.631 66.52 152.217 65.96L152.937 67ZM140.657 66.28C141.351 66.28 142.031 66.1067 142.697 65.76C143.391 65.3867 144.111 64.7067 144.857 63.72V59.12H141.857C140.551 59.12 139.604 59.4267 139.017 60.04C138.431 60.6533 138.137 61.6133 138.137 62.92C138.137 63.9867 138.351 64.8133 138.777 65.4C139.204 65.9867 139.831 66.28 140.657 66.28ZM177.621 66.88V68H166.861V66.88L169.061 66.6C169.487 66.5467 169.741 66.44 169.821 66.28C169.901 66.0933 169.941 65.5467 169.941 64.64V54.56C169.941 52.72 169.661 51.3867 169.101 50.56C168.567 49.7067 167.767 49.28 166.701 49.28C166.247 49.28 165.714 49.4 165.101 49.64C164.514 49.8533 163.914 50.2533 163.301 50.84C162.714 51.4267 162.194 52.2933 161.741 53.44V64.64C161.741 65.5467 161.781 66.0933 161.861 66.28C161.941 66.44 162.194 66.5467 162.621 66.6L164.821 66.88V68H154.061V66.88L156.261 66.6C156.687 66.5467 156.941 66.44 157.021 66.28C157.101 66.0933 157.141 65.5467 157.141 64.64V51.08C157.141 50.1733 157.101 49.64 157.021 49.48C156.941 49.2933 156.687 49.1733 156.261 49.12L154.061 48.84V47.72H161.501V51.24C162.274 49.88 163.261 48.8933 164.461 48.28C165.687 47.64 166.914 47.32 168.141 47.32C170.114 47.32 171.674 47.9467 172.821 49.2C173.967 50.4533 174.541 52.2267 174.541 54.52V64.64C174.541 65.5467 174.581 66.0933 174.661 66.28C174.741 66.44 174.994 66.5467 175.421 66.6L177.621 66.88ZM200.823 75.4V76.52H189.263V75.4L192.263 75.12C192.689 75.0667 192.943 74.9467 193.023 74.76C193.103 74.6 193.143 74.0667 193.143 73.16V65.04C192.423 66.16 191.609 67 190.703 67.56C189.823 68.12 188.796 68.4 187.623 68.4C185.383 68.4 183.596 67.52 182.263 65.76C180.956 63.9733 180.303 61.48 180.303 58.28V57.48C180.303 54.3867 181.063 51.92 182.583 50.08C184.129 48.24 186.236 47.32 188.903 47.32C190.956 47.32 192.636 47.9333 193.943 49.16C194.423 48.9733 194.889 48.7467 195.343 48.48C195.796 48.1867 196.236 47.8667 196.663 47.52H197.743V73.16C197.743 74.0667 197.783 74.6 197.863 74.76C197.943 74.9467 198.196 75.0667 198.622 75.12L200.823 75.4ZM185.223 59.48C185.223 61.96 185.529 63.7733 186.143 64.92C186.756 66.0667 187.596 66.64 188.663 66.64C189.329 66.64 190.023 66.3733 190.743 65.84C191.489 65.28 192.289 64.16 193.143 62.48V50.4C192.129 49.3867 190.889 48.88 189.423 48.88C187.956 48.88 186.889 49.5467 186.223 50.88C185.556 52.1867 185.223 53.9867 185.223 56.28V59.48ZM224.748 66.88V68H217.308V64.48C216.562 65.84 215.602 66.84 214.428 67.48C213.255 68.0933 212.068 68.4 210.868 68.4C208.975 68.4 207.468 67.7733 206.348 66.52C205.228 65.24 204.668 63.4667 204.668 61.2V51.08C204.668 50.1733 204.628 49.64 204.548 49.48C204.468 49.2933 204.215 49.1733 203.788 49.12L201.588 48.84V47.72H209.268V61.16C209.268 63 209.522 64.3467 210.028 65.2C210.562 66.0267 211.322 66.44 212.308 66.44C212.735 66.44 213.228 66.3333 213.788 66.12C214.375 65.88 214.962 65.4667 215.548 64.88C216.135 64.2667 216.642 63.4 217.068 62.28V51.08C217.068 50.1733 217.028 49.6267 216.948 49.44C216.868 49.2533 216.615 49.1467 216.188 49.12L213.188 48.84V47.72H221.668V64.64C221.668 65.5467 221.708 66.0933 221.788 66.28C221.868 66.44 222.122 66.5467 222.548 66.6L224.748 66.88ZM244.366 63.24C243.886 65.1067 242.993 66.44 241.686 67.24C240.38 68.0133 238.86 68.4 237.126 68.4C233.926 68.4 231.526 67.48 229.926 65.64C228.326 63.7733 227.526 61.3067 227.526 58.24V57.44C227.526 54.3733 228.273 51.92 229.766 50.08C231.286 48.24 233.473 47.32 236.326 47.32C237.926 47.32 239.34 47.64 240.566 48.28C241.82 48.8933 242.793 49.7867 243.486 50.96C244.206 52.1333 244.566 53.56 244.566 55.24C244.566 55.64 244.54 56.0667 244.486 56.52C244.46 56.9733 244.393 57.4267 244.286 57.88H232.446V59.04C232.446 61.8667 232.846 63.9067 233.646 65.16C234.446 66.3867 235.74 67 237.526 67C238.673 67 239.646 66.6667 240.446 66C241.246 65.3067 241.7 64.1467 241.806 62.52L244.366 63.24ZM236.326 48.72C235.02 48.72 234.046 49.32 233.406 50.52C232.766 51.72 232.446 53.7067 232.446 56.48H239.686C239.793 55.9467 239.86 55.4533 239.886 55C239.94 54.52 239.966 54.08 239.966 53.68C239.966 51.9733 239.633 50.72 238.966 49.92C238.3 49.12 237.42 48.72 236.326 48.72ZM283.523 66.88V68H272.563V66.88L274.763 66.6C275.19 66.5467 275.443 66.44 275.523 66.28C275.603 66.0933 275.643 65.5467 275.643 64.64V54.96H265.123V64.64C265.123 65.5467 265.163 66.0933 265.243 66.28C265.323 66.44 265.577 66.5467 266.003 66.6L268.203 66.88V68H257.243V66.88L259.443 66.6C259.87 66.5467 260.123 66.44 260.203 66.28C260.283 66.0933 260.323 65.5467 260.323 64.64V44.16C260.323 43.2533 260.283 42.72 260.203 42.56C260.123 42.3733 259.87 42.2533 259.443 42.2L257.243 41.92V40.8H268.203V41.92L266.003 42.2C265.577 42.2533 265.323 42.3733 265.243 42.56C265.163 42.72 265.123 43.2533 265.123 44.16V53.56H275.643V44.16C275.643 43.2533 275.603 42.72 275.523 42.56C275.443 42.3733 275.19 42.2533 274.763 42.2L272.563 41.92V40.8H283.523V41.92L281.323 42.2C280.897 42.2533 280.643 42.3733 280.563 42.56C280.483 42.72 280.443 43.2533 280.443 44.16V64.64C280.443 65.5467 280.483 66.0933 280.563 66.28C280.643 66.44 280.897 66.5467 281.323 66.6L283.523 66.88ZM304.21 63.24C303.73 65.1067 302.837 66.44 301.53 67.24C300.223 68.0133 298.703 68.4 296.97 68.4C293.77 68.4 291.37 67.48 289.77 65.64C288.17 63.7733 287.37 61.3067 287.37 58.24V57.44C287.37 54.3733 288.117 51.92 289.61 50.08C291.13 48.24 293.317 47.32 296.17 47.32C297.77 47.32 299.183 47.64 300.41 48.28C301.663 48.8933 302.637 49.7867 303.33 50.96C304.05 52.1333 304.41 53.56 304.41 55.24C304.41 55.64 304.383 56.0667 304.33 56.52C304.303 56.9733 304.237 57.4267 304.13 57.88H292.29V59.04C292.29 61.8667 292.69 63.9067 293.49 65.16C294.29 66.3867 295.583 67 297.37 67C298.517 67 299.49 66.6667 300.29 66C301.09 65.3067 301.543 64.1467 301.65 62.52L304.21 63.24ZM296.17 48.72C294.863 48.72 293.89 49.32 293.25 50.52C292.61 51.72 292.29 53.7067 292.29 56.48H299.53C299.637 55.9467 299.703 55.4533 299.73 55C299.783 54.52 299.81 54.08 299.81 53.68C299.81 51.9733 299.477 50.72 298.81 49.92C298.143 49.12 297.263 48.72 296.17 48.72ZM307.062 39.52V38.4H314.742V64.64C314.742 65.5467 314.782 66.0933 314.862 66.28C314.942 66.44 315.195 66.5467 315.622 66.6L317.822 66.88V68H307.062V66.88L309.262 66.6C309.689 66.5467 309.942 66.44 310.022 66.28C310.102 66.0933 310.142 65.5467 310.142 64.64V41.76C310.142 40.8533 310.102 40.32 310.022 40.16C309.942 39.9733 309.689 39.8533 309.262 39.8L307.062 39.52ZM336.192 51.08L330.512 68H326.872L321.192 51.08C321.005 50.4667 320.845 50.04 320.712 49.8C320.605 49.5333 320.472 49.36 320.312 49.28C320.179 49.2 319.965 49.1467 319.672 49.12L317.472 48.84V47.72H328.272V48.84L326.072 49.12C325.672 49.1733 325.459 49.28 325.432 49.44C325.405 49.6 325.539 50.1467 325.832 51.08L330.232 64.36L334.672 51.08C334.965 50.1467 335.099 49.6 335.072 49.44C335.072 49.28 334.859 49.1733 334.432 49.12L332.232 48.84V47.72H339.872V48.84L337.672 49.12C337.405 49.1467 337.192 49.2 337.032 49.28C336.899 49.36 336.779 49.5333 336.672 49.8C336.565 50.04 336.405 50.4667 336.192 51.08ZM357.218 63.24C356.738 65.1067 355.844 66.44 354.538 67.24C353.231 68.0133 351.711 68.4 349.978 68.4C346.778 68.4 344.378 67.48 342.778 65.64C341.178 63.7733 340.378 61.3067 340.378 58.24V57.44C340.378 54.3733 341.124 51.92 342.618 50.08C344.138 48.24 346.324 47.32 349.178 47.32C350.778 47.32 352.191 47.64 353.418 48.28C354.671 48.8933 355.644 49.7867 356.338 50.96C357.058 52.1333 357.418 53.56 357.418 55.24C357.418 55.64 357.391 56.0667 357.338 56.52C357.311 56.9733 357.244 57.4267 357.138 57.88H345.298V59.04C345.298 61.8667 345.698 63.9067 346.498 65.16C347.298 66.3867 348.591 67 350.378 67C351.524 67 352.498 66.6667 353.298 66C354.098 65.3067 354.551 64.1467 354.658 62.52L357.218 63.24ZM349.178 48.72C347.871 48.72 346.898 49.32 346.258 50.52C345.618 51.72 345.298 53.7067 345.298 56.48H352.538C352.644 55.9467 352.711 55.4533 352.738 55C352.791 54.52 352.818 54.08 352.818 53.68C352.818 51.9733 352.484 50.72 351.818 49.92C351.151 49.12 350.271 48.72 349.178 48.72ZM349.138 44.84L348.178 44C348.711 43.1467 349.191 42.3067 349.618 41.48C350.044 40.6267 350.391 39.6 350.658 38.4H355.698C354.791 39.6267 353.844 40.7333 352.858 41.72C351.871 42.7067 350.631 43.7467 349.138 44.84ZM374.59 63.84C374.243 65.4667 373.576 66.64 372.59 67.36C371.63 68.0533 370.456 68.4 369.07 68.4C367.656 68.4 366.496 68.0933 365.59 67.48C364.683 66.84 364.016 66 363.59 64.96C363.163 63.92 362.95 62.8133 362.95 61.64V51.08C362.95 50.1733 362.91 49.64 362.83 49.48C362.75 49.2933 362.496 49.1733 362.07 49.12L359.87 48.84V47.72H362.95V43.08L367.55 42.16V47.72H373.95V49.12H367.55V62.44C367.55 64.1467 367.763 65.3333 368.19 66C368.616 66.64 369.163 66.96 369.83 66.96C370.523 66.96 371.056 66.6933 371.43 66.16C371.83 65.6267 372.083 64.6533 372.19 63.24L374.59 63.84ZM381.491 44.28C380.664 44.28 379.998 44.0267 379.491 43.52C378.984 42.9867 378.731 42.3067 378.731 41.48C378.731 40.6533 378.984 39.9867 379.491 39.48C379.998 38.9733 380.664 38.72 381.491 38.72C382.291 38.72 382.958 38.9733 383.491 39.48C384.024 39.9867 384.291 40.6533 384.291 41.48C384.291 42.3067 384.024 42.9867 383.491 43.52C382.958 44.0267 382.291 44.28 381.491 44.28ZM376.131 48.84V47.72H383.811V64.64C383.811 65.5467 383.851 66.0933 383.931 66.28C384.011 66.44 384.264 66.5467 384.691 66.6L386.891 66.88V68H376.131V66.88L378.331 66.6C378.758 66.5467 379.011 66.44 379.091 66.28C379.171 66.0933 379.211 65.5467 379.211 64.64V51.08C379.211 50.1733 379.171 49.64 379.091 49.48C379.011 49.2933 378.758 49.1733 378.331 49.12L376.131 48.84ZM410.276 75.4V76.52H398.716V75.4L401.716 75.12C402.142 75.0667 402.396 74.9467 402.476 74.76C402.556 74.6 402.596 74.0667 402.596 73.16V65.04C401.876 66.16 401.062 67 400.156 67.56C399.276 68.12 398.249 68.4 397.076 68.4C394.836 68.4 393.049 67.52 391.716 65.76C390.409 63.9733 389.756 61.48 389.756 58.28V57.48C389.756 54.3867 390.516 51.92 392.036 50.08C393.582 48.24 395.689 47.32 398.356 47.32C400.409 47.32 402.089 47.9333 403.396 49.16C403.876 48.9733 404.342 48.7467 404.796 48.48C405.249 48.1867 405.689 47.8667 406.116 47.52H407.196V73.16C407.196 74.0667 407.236 74.6 407.316 74.76C407.396 74.9467 407.649 75.0667 408.076 75.12L410.276 75.4ZM394.676 59.48C394.676 61.96 394.982 63.7733 395.596 64.92C396.209 66.0667 397.049 66.64 398.116 66.64C398.782 66.64 399.476 66.3733 400.196 65.84C400.942 65.28 401.742 64.16 402.596 62.48V50.4C401.582 49.3867 400.342 48.88 398.876 48.88C397.409 48.88 396.342 49.5467 395.676 50.88C395.009 52.1867 394.676 53.9867 394.676 56.28V59.48ZM434.202 66.88V68H426.762V64.48C426.015 65.84 425.055 66.84 423.882 67.48C422.708 68.0933 421.522 68.4 420.322 68.4C418.428 68.4 416.922 67.7733 415.802 66.52C414.682 65.24 414.122 63.4667 414.122 61.2V51.08C414.122 50.1733 414.082 49.64 414.002 49.48C413.922 49.2933 413.668 49.1733 413.242 49.12L411.042 48.84V47.72H418.722V61.16C418.722 63 418.975 64.3467 419.482 65.2C420.015 66.0267 420.775 66.44 421.762 66.44C422.188 66.44 422.682 66.3333 423.242 66.12C423.828 65.88 424.415 65.4667 425.002 64.88C425.588 64.2667 426.095 63.4 426.522 62.28V51.08C426.522 50.1733 426.482 49.6267 426.402 49.44C426.322 49.2533 426.068 49.1467 425.642 49.12L422.642 48.84V47.72H431.122V64.64C431.122 65.5467 431.162 66.0933 431.242 66.28C431.322 66.44 431.575 66.5467 432.002 66.6L434.202 66.88ZM453.819 63.24C453.339 65.1067 452.446 66.44 451.139 67.24C449.833 68.0133 448.313 68.4 446.579 68.4C443.379 68.4 440.979 67.48 439.379 65.64C437.779 63.7733 436.979 61.3067 436.979 58.24V57.44C436.979 54.3733 437.726 51.92 439.219 50.08C440.739 48.24 442.926 47.32 445.779 47.32C447.379 47.32 448.793 47.64 450.019 48.28C451.273 48.8933 452.246 49.7867 452.939 50.96C453.659 52.1333 454.019 53.56 454.019 55.24C454.019 55.64 453.993 56.0667 453.939 56.52C453.913 56.9733 453.846 57.4267 453.739 57.88H441.899V59.04C441.899 61.8667 442.299 63.9067 443.099 65.16C443.899 66.3867 445.193 67 446.979 67C448.126 67 449.099 66.6667 449.899 66C450.699 65.3067 451.153 64.1467 451.259 62.52L453.819 63.24ZM445.779 48.72C444.473 48.72 443.499 49.32 442.859 50.52C442.219 51.72 441.899 53.7067 441.899 56.48H449.139C449.246 55.9467 449.313 55.4533 449.339 55C449.393 54.52 449.419 54.08 449.419 53.68C449.419 51.9733 449.086 50.72 448.419 49.92C447.753 49.12 446.873 48.72 445.779 48.72Z" fill="#727171"/>
</g>
<defs>
<filter id="filter0_d_5_18" x="0" y="0" width="488" height="108" filterUnits="userSpaceOnUse" color-interpolation-filters="sRGB">
<feFlood flood-opacity="0" result="BackgroundImageFix"/>
<feColorMatrix in="SourceAlpha" type="matrix" values="0 0 0 0 0 0 0 0 0 0 0 0 0 0 0 0 0 0 127 0" result="hardAlpha"/>
<feOffset dy="1"/>
<feGaussianBlur stdDeviation="2"/>
<feComposite in2="hardAlpha" operator="out"/>
<feColorMatrix type="matrix" values="0 0 0 0 0 0 0 0 0 0 0 0 0 0 0 0 0 0 0.4 0"/>
<feBlend mode="normal" in2="BackgroundImageFix" result="effect1_dropShadow_5_18"/>
<feBlend mode="normal" in="SourceGraphic" in2="effect1_dropShadow_5_18" result="shape"/>
</filter>
</defs>
</svg>
