<svg width="400" height="400" viewBox="0 0 400 400" fill="none" xmlns="http://www.w3.org/2000/svg">
<path fill-rule="evenodd" clip-rule="evenodd" d="M341.421 341.421C419.526 263.317 419.526 136.683 341.421 58.5786C263.316 -19.5262 136.683 -19.5262 58.5786 58.5786C-19.5262 136.684 -19.5262 263.316 58.5786 341.421C136.683 419.526 263.316 419.526 341.421 341.421ZM200 228.284L312.36 340.645C246.843 393.118 153.157 393.118 87.6397 340.645L200 228.284ZM200 171.716L87.6397 59.3555C153.157 6.88151 246.843 6.88151 312.36 59.3555L200 171.716ZM228.284 200L340.645 87.6397C393.118 153.157 393.118 246.843 340.645 312.36L228.284 200ZM171.716 200L59.3555 312.36C6.88152 246.843 6.88152 153.157 59.3555 87.6397L171.716 200Z" fill="white"/>
</svg>
