<svg width="480" height="700" viewBox="0 0 480 700" fill="none" xmlns="http://www.w3.org/2000/svg">
<path d="M438 79C438 71.268 444.268 65 452 65V65C459.732 65 466 71.268 466 79V101C466 108.732 459.732 115 452 115V115C444.268 115 438 108.732 438 101V79Z" fill="black"/>
<path d="M438 603C438 595.268 444.268 589 452 589V589C459.732 589 466 595.268 466 603V625C466 632.732 459.732 639 452 639V639C444.268 639 438 632.732 438 625V603Z" fill="black"/>
<path d="M11 78C11 70.268 17.268 64 25 64V64C32.732 64 39 70.268 39 78V100C39 107.732 32.732 114 25 114V114C17.268 114 11 107.732 11 100V78Z" fill="black"/>
<path d="M11 602C11 594.268 17.268 588 25 588V588C32.732 588 39 594.268 39 602V624C39 631.732 32.732 638 25 638V638C17.268 638 11 631.732 11 624V602Z" fill="black"/>
<path d="M256.133 343.213C248.179 354.792 231.207 354.792 223.253 343.213L53.5947 96.2146C44.4051 82.8359 53.8982 64.5533 70.0345 64.5533L409.352 64.5533C425.488 64.5533 434.981 82.8359 425.792 96.2146L256.133 343.213Z" fill="black"/>
<path d="M0 20C0 8.95432 8.95431 0 20 0H460C471.046 0 480 8.95431 480 20V30.2594H0V20Z" fill="black"/>
<path d="M475 37.3199C475 48.3656 466.046 57.4928 455 57.4928L262.5 57.4928L25 57.4928C13.9543 57.4928 5 48.3656 5 37.3199V37.3199L475 37.3199V37.3199Z" fill="black"/>
<path d="M480 680C480 691.046 471.046 700 460 700H20C8.95431 700 0 691.046 0 680V669.741L480 669.741V680Z" fill="black"/>
<path d="M5 662.68C5 651.634 13.9543 642.507 25 642.507H455C466.046 642.507 475 651.634 475 662.68V662.68H5V662.68Z" fill="black"/>
<path d="M223.253 356.667C231.207 345.088 248.179 345.088 256.133 356.667L425.792 603.666C434.981 617.044 425.488 635.327 409.352 635.327H70.0345C53.8981 635.327 44.4051 617.044 53.5947 603.666L223.253 356.667Z" fill="black"/>
<path d="M226.133 356.214C232.842 345.239 247.158 345.239 253.867 356.214L396.968 590.31C404.719 602.989 396.712 620.317 383.102 620.317H96.8985C83.2879 620.317 75.2809 602.989 83.032 590.31L226.133 356.214Z" fill="white"/>
<path d="M226.133 356.214C232.842 345.239 247.158 345.239 253.867 356.214L396.968 590.31C404.719 602.989 396.712 620.317 383.102 620.317H96.8985C83.2879 620.317 75.2809 602.989 83.032 590.31L226.133 356.214Z" fill="white"/>
<path d="M226.133 356.214C232.842 345.239 247.158 345.239 253.867 356.214L396.968 590.31C404.719 602.989 396.712 620.317 383.102 620.317H96.8985C83.2879 620.317 75.2809 602.989 83.032 590.31L226.133 356.214Z" fill="white"/>
<path d="M253.867 343.786C247.158 354.761 232.842 354.761 226.133 343.786L83.032 109.69C75.2809 97.0106 83.288 79.683 96.8985 79.683L383.102 79.683C396.712 79.683 404.719 97.0106 396.968 109.69L253.867 343.786Z" fill="white"/>
<path d="M253.867 343.786C247.158 354.761 232.842 354.761 226.133 343.786L83.032 109.69C75.2809 97.0106 83.288 79.683 96.8985 79.683L383.102 79.683C396.712 79.683 404.719 97.0106 396.968 109.69L253.867 343.786Z" fill="white"/>
<path d="M253.867 343.786C247.158 354.761 232.842 354.761 226.133 343.786L83.032 109.69C75.2809 97.0106 83.288 79.683 96.8985 79.683L383.102 79.683C396.712 79.683 404.719 97.0106 396.968 109.69L253.867 343.786Z" fill="white"/>
<path d="M244.205 351.009C242.243 354.248 237.757 354.248 235.795 351.009L140.792 194.09C138.672 190.59 141.057 186.003 144.996 186.003L335.004 186.003C338.943 186.003 341.328 190.59 339.208 194.09L244.205 351.009Z" fill="black"/>
<path d="M233.693 449.259C236.635 446.02 243.365 446.02 246.307 449.259L388.813 606.178C391.992 609.678 388.414 614.265 382.506 614.265H97.4941C91.5856 614.265 88.0085 609.678 91.1873 606.178L233.693 449.259Z" fill="black"/>
<rect x="234" y="348" width="12" height="103.89" fill="black"/>
<path d="M13 100.769C13 94.142 18.3726 88.7695 25 88.7695V88.7695C31.6274 88.7695 37 94.142 37 100.769V601.265C37 607.893 31.6274 613.265 25 613.265V613.265C18.3726 613.265 13 607.893 13 601.265V100.769Z" fill="black"/>
<path d="M440 101.769C440 95.142 445.373 89.7695 452 89.7695V89.7695C458.627 89.7695 464 95.142 464 101.769V602.265C464 608.893 458.627 614.265 452 614.265V614.265C445.373 614.265 440 608.893 440 602.265V101.769Z" fill="black"/>
</svg>
