<svg width="203" height="183" viewBox="0 0 203 183" fill="none" xmlns="http://www.w3.org/2000/svg">
<rect x="0.05" y="0.05" width="95.9" height="158.9" rx="1.95" fill="#25618D" stroke="black" stroke-width="0.1"/>
<circle cx="48" cy="67" r="9.5" stroke="white"/>
<circle cx="48" cy="67" r="19.5" stroke="white"/>
<circle cx="48" cy="67" r="29.5" stroke="white"/>
<circle cx="48" cy="67" r="39.5" stroke="white"/>
<circle cx="48" cy="67" r="2" fill="white"/>
<path d="M47.5 72L87.7702 108.75H7.22982L47.5 72Z" fill="#25618D"/>
<path d="M47.5 61L87.7702 24.25H7.22982L47.5 61Z" fill="#25618D"/>
<path d="M24.1136 130V112.545H30.0114C31.375 112.545 32.4943 112.778 33.3693 113.244C34.2443 113.705 34.892 114.338 35.3125 115.145C35.733 115.952 35.9432 116.869 35.9432 117.898C35.9432 118.926 35.733 119.838 35.3125 120.634C34.892 121.429 34.2472 122.054 33.3778 122.509C32.5085 122.957 31.3977 123.182 30.0455 123.182H25.2727V121.273H29.9773C30.9091 121.273 31.6591 121.136 32.2273 120.864C32.8011 120.591 33.2159 120.205 33.4716 119.705C33.733 119.199 33.8636 118.597 33.8636 117.898C33.8636 117.199 33.733 116.588 33.4716 116.065C33.2102 115.543 32.7926 115.139 32.2188 114.855C31.6449 114.565 30.8864 114.42 29.9432 114.42H26.2273V130H24.1136ZM32.3295 122.159L36.625 130H34.1705L29.9432 122.159H32.3295ZM39.4652 130V112.545H49.9311V114.42H41.5788V120.318H49.147V122.193H41.5788V130H39.4652ZM55.6648 112.545V130H53.5511V112.545H55.6648ZM65.2891 130H59.9027V112.545H65.5277C67.2209 112.545 68.6697 112.895 69.8743 113.594C71.0788 114.287 72.0021 115.284 72.6442 116.585C73.2862 117.881 73.6072 119.432 73.6072 121.239C73.6072 123.057 73.2834 124.622 72.6357 125.935C71.9879 127.241 71.0447 128.247 69.8061 128.952C68.5675 129.651 67.0618 130 65.2891 130ZM62.0163 128.125H65.1527C66.5959 128.125 67.7919 127.847 68.7408 127.29C69.6896 126.733 70.397 125.94 70.8629 124.912C71.3288 123.884 71.5618 122.659 71.5618 121.239C71.5618 119.83 71.3317 118.616 70.8714 117.599C70.4112 116.577 69.7237 115.793 68.8089 115.247C67.8942 114.696 66.755 114.42 65.3913 114.42H62.0163V128.125Z" fill="white"/>
<rect x="58.0641" y="32.8638" width="95.9" height="158.9" rx="4.95" transform="rotate(-20 58.0641 32.8638)" fill="#E3E1E1" stroke="black" stroke-width="0.1"/>
</svg>
